<?xml version="1.0" encoding="utf-8"?>
<!-- Generator: Adobe Illustrator 23.0.3, SVG Export Plug-In . SVG Version: 6.00 Build 0)  -->
<svg version="1.1" id="Слой_57" xmlns="http://www.w3.org/2000/svg" xmlns:xlink="http://www.w3.org/1999/xlink" x="0px"
	 y="0px" width="1000px" height="1000px" viewBox="0 0 1000 1000" style="enable-background:new 0 0 1000 1000;"
	 xml:space="preserve">
<style type="text/css">
	.st0{fill:#1E1A39;}
	.st1{fill:#7EA6BE;}
	.st2{fill:#EDA340;}
	.st3{fill:#4A3B8C;}
	.st4{fill:#47BACA;}
	.st5{fill:#241A40;}
	.st6{fill:none;stroke:#6587B1;stroke-width:7;stroke-miterlimit:10;}
	.st7{fill:none;stroke:#6BC0CA;stroke-width:7;stroke-miterlimit:10;}
	.st8{fill:#1E1A39;stroke:#6587B1;stroke-width:7;stroke-miterlimit:10;}
	.st9{fill:none;stroke:#187C9B;stroke-width:8;stroke-miterlimit:10;}
	.st10{fill:#2E2254;}
	.st11{fill:#FFF4E6;}
</style>
<g>
	<polygon class="st0" points="669.41919,378.7533 797.41913,378.80353 798.95264,691.33582 669.29578,693.09094 	"/>
	<g>
		
			<rect x="757.17175" y="590.9162" transform="matrix(-1 -0.00039 0.00039 -1 1521.44458 1189.46558)" class="st1" width="7.33456" height="7.33456"/>
		
			<rect x="757.16345" y="612.03265" transform="matrix(-1 -0.00039 0.00039 -1 1521.41968 1231.69849)" class="st1" width="7.33456" height="7.33456"/>
		
			<rect x="757.15515" y="633.14911" transform="matrix(-1 -0.00039 0.00039 -1 1521.3949 1273.9314)" class="st1" width="7.33456" height="7.33456"/>
		
			<rect x="757.14691" y="654.2655" transform="matrix(-1 -0.00039 0.00039 -1 1521.37 1316.16431)" class="st1" width="7.33456" height="7.33456"/>
		
			<rect x="757.13861" y="675.38196" transform="matrix(-1 -0.00039 0.00039 -1 1521.34509 1358.39709)" class="st1" width="7.33456" height="7.33456"/>
	</g>
	<g>
		
			<rect x="757.17175" y="590.9162" transform="matrix(-1 -0.00039 0.00039 -1 1521.44458 1189.46558)" class="st2" width="7.33456" height="7.33456"/>
		
			<rect x="757.16345" y="612.03265" transform="matrix(-1 -0.00039 0.00039 -1 1521.41968 1231.69849)" class="st2" width="7.33456" height="7.33456"/>
		
			<rect x="757.15515" y="633.14911" transform="matrix(-1 -0.00039 0.00039 -1 1521.3949 1273.9314)" class="st2" width="7.33456" height="7.33456"/>
		
			<rect x="757.14691" y="654.2655" transform="matrix(-1 -0.00039 0.00039 -1 1521.37 1316.16431)" class="st2" width="7.33456" height="7.33456"/>
		
			<rect x="757.13861" y="675.38196" transform="matrix(-1 -0.00039 0.00039 -1 1521.34509 1358.39709)" class="st2" width="7.33456" height="7.33456"/>
	</g>
	<g>
		
			<rect x="714.93884" y="590.8996" transform="matrix(-1 -0.00039 0.00039 -1 1436.97876 1189.41589)" class="st3" width="7.33456" height="7.33456"/>
		
			<rect x="714.9306" y="612.01605" transform="matrix(-1 -0.00039 0.00039 -1 1436.95398 1231.6488)" class="st3" width="7.33456" height="7.33456"/>
		
			<rect x="714.9223" y="633.13251" transform="matrix(-1 -0.00039 0.00039 -1 1436.92908 1273.88159)" class="st3" width="7.33456" height="7.33456"/>
		
			<rect x="714.914" y="654.24896" transform="matrix(-1 -0.00039 0.00039 -1 1436.90417 1316.1145)" class="st3" width="7.33456" height="7.33456"/>
		
			<rect x="714.9057" y="675.36542" transform="matrix(-1 -0.00039 0.00039 -1 1436.87939 1358.34741)" class="st3" width="7.33456" height="7.33456"/>
	</g>
	<g>
		
			<rect x="757.23889" y="419.97354" transform="matrix(-1 -0.00039 0.00039 -1 1521.64587 847.58032)" class="st1" width="7.33456" height="7.33456"/>
		
			<rect x="757.23059" y="441.09" transform="matrix(-1 -0.00039 0.00039 -1 1521.62109 889.81323)" class="st1" width="7.33456" height="7.33456"/>
		
			<rect x="757.22229" y="462.20642" transform="matrix(-1 -0.00039 0.00039 -1 1521.59619 932.04608)" class="st1" width="7.33456" height="7.33456"/>
		
			<rect x="757.21399" y="483.32288" transform="matrix(-1 -0.00039 0.00039 -1 1521.57129 974.27899)" class="st1" width="7.33456" height="7.33456"/>
		
			<rect x="757.20569" y="504.43933" transform="matrix(-1 -0.00039 0.00039 -1 1521.54639 1016.5119)" class="st1" width="7.33456" height="7.33456"/>
		
			<rect x="757.19739" y="525.55579" transform="matrix(-1 -0.00039 0.00039 -1 1521.52161 1058.74475)" class="st1" width="7.33456" height="7.33456"/>
		
			<rect x="757.18915" y="546.67224" transform="matrix(-1 -0.00039 0.00039 -1 1521.4967 1100.97766)" class="st1" width="7.33456" height="7.33456"/>
	</g>
	<g>
		<g>
			
				<rect x="737.06085" y="590.90833" transform="matrix(-1 -0.00039 0.00039 -1 1481.22278 1189.44189)" class="st4" width="7.33456" height="7.33456"/>
			
				<rect x="737.05255" y="612.02472" transform="matrix(-1 -0.00039 0.00039 -1 1481.19788 1231.6748)" class="st4" width="7.33456" height="7.33456"/>
			
				<rect x="737.04425" y="633.14117" transform="matrix(-1 -0.00039 0.00039 -1 1481.1731 1273.90771)" class="st4" width="7.33456" height="7.33456"/>
			
				<rect x="737.03601" y="654.25763" transform="matrix(-1 -0.00039 0.00039 -1 1481.14819 1316.14063)" class="st4" width="7.33456" height="7.33456"/>
			
				<rect x="737.02771" y="675.37408" transform="matrix(-1 -0.00039 0.00039 -1 1481.12329 1358.37341)" class="st4" width="7.33456" height="7.33456"/>
		</g>
		<g>
			
				<rect x="737.12799" y="419.96564" transform="matrix(-1 -0.00039 0.00039 -1 1481.42407 847.55664)" class="st4" width="7.33456" height="7.33456"/>
			
				<rect x="737.11969" y="441.08209" transform="matrix(-1 -0.00039 0.00039 -1 1481.39929 889.78955)" class="st4" width="7.33456" height="7.33456"/>
			
				<rect x="737.10309" y="483.31497" transform="matrix(-1 -0.00039 0.00039 -1 1481.34949 974.25531)" class="st4" width="7.33456" height="7.33456"/>
			
				<rect x="737.09479" y="504.43143" transform="matrix(-1 -0.00039 0.00039 -1 1481.32458 1016.48822)" class="st4" width="7.33456" height="7.33456"/>
			
				<rect x="737.07825" y="546.66431" transform="matrix(-1 -0.00039 0.00039 -1 1481.2749 1100.95398)" class="st4" width="7.33456" height="7.33456"/>
			
				<rect x="737.06995" y="567.78076" transform="matrix(-1 -0.00039 0.00039 -1 1481.25 1143.18689)" class="st4" width="7.33456" height="7.33456"/>
		</g>
	</g>
	<g>
		
			<rect x="715.01428" y="398.84052" transform="matrix(-1 -0.00039 0.00039 -1 1437.20508 805.29773)" class="st3" width="7.33456" height="7.33456"/>
		
			<rect x="715.00598" y="419.95697" transform="matrix(-1 -0.00039 0.00039 -1 1437.18018 847.53058)" class="st3" width="7.33456" height="7.33456"/>
		
			<rect x="714.99768" y="441.07339" transform="matrix(-1 -0.00039 0.00039 -1 1437.15527 889.76349)" class="st3" width="7.33456" height="7.33456"/>
		
			<rect x="714.98938" y="462.18985" transform="matrix(-1 -0.00039 0.00039 -1 1437.13037 931.99634)" class="st3" width="7.33456" height="7.33456"/>
		
			<rect x="714.98108" y="483.3063" transform="matrix(-1 -0.00039 0.00039 -1 1437.10559 974.22925)" class="st3" width="7.33456" height="7.33456"/>
		
			<rect x="714.97284" y="504.42273" transform="matrix(-1 -0.00039 0.00039 -1 1437.08069 1016.46216)" class="st3" width="7.33456" height="7.33456"/>
		
			<rect x="714.96454" y="525.53918" transform="matrix(-1 -0.00039 0.00039 -1 1437.05579 1058.69507)" class="st3" width="7.33456" height="7.33456"/>
		
			<rect x="714.95624" y="546.65564" transform="matrix(-1 -0.00039 0.00039 -1 1437.03088 1100.92786)" class="st3" width="7.33456" height="7.33456"/>
		
			<rect x="714.94794" y="567.77209" transform="matrix(-1 -0.00039 0.00039 -1 1437.0061 1143.16077)" class="st3" width="7.33456" height="7.33456"/>
	</g>
</g>
<g>
	<polygon class="st5" points="391.46909,242.23647 391.25262,793.64319 690.7298,788.04572 681.06604,242.35016 
		631.38031,242.33066 631.39941,193.69217 599.45856,193.67963 599.47339,155.8497 473.42538,155.80022 473.40912,197.233 
		444.01172,197.22145 443.99387,242.70744 	"/>
	<polygon class="st6" points="391.46909,242.23647 391.25262,793.64319 684.69458,793.07104 681.06604,242.35016 
		631.38031,242.33066 631.39941,193.69217 599.45856,193.67963 599.47339,155.8497 473.42538,155.80022 473.40912,197.233 
		444.01172,197.22145 443.99387,242.70744 	"/>
	<polyline class="st7" points="397.28787,788.6178 690.7298,788.04572 687.10132,237.3248 637.41553,237.3053 637.43463,188.66681 
		605.49377,188.65428 605.50867,150.82434 479.46063,150.77486 479.44437,192.20764 450.04697,192.19611 450.02911,237.68208 	"/>
	<g>
		
			<rect x="516.914" y="418.87366" transform="matrix(-1 -0.00039 0.00039 -1 1040.9967 845.28619)" class="st1" width="7.33456" height="7.33456"/>
		
			<rect x="516.9057" y="439.99008" transform="matrix(-1 -0.00039 0.00039 -1 1040.9718 887.5191)" class="st1" width="7.33456" height="7.33456"/>
		
			<rect x="516.8974" y="461.10654" transform="matrix(-1 -0.00039 0.00039 -1 1040.9469 929.75195)" class="st1" width="7.33456" height="7.33456"/>
		
			<rect x="516.88916" y="482.22299" transform="matrix(-1 -0.00039 0.00039 -1 1040.922 971.98486)" class="st1" width="7.33456" height="7.33456"/>
		
			<rect x="516.88086" y="503.33942" transform="matrix(-1 -0.00039 0.00039 -1 1040.89722 1014.21771)" class="st1" width="7.33456" height="7.33456"/>
		
			<rect x="516.87256" y="524.45587" transform="matrix(-1 -0.00039 0.00039 -1 1040.87231 1056.45068)" class="st1" width="7.33456" height="7.33456"/>
		
			<rect x="516.86426" y="545.57233" transform="matrix(-1 -0.00039 0.00039 -1 1040.84741 1098.68347)" class="st1" width="7.33456" height="7.33456"/>
		
			<rect x="516.85596" y="566.68878" transform="matrix(-1 -0.00039 0.00039 -1 1040.82251 1140.91638)" class="st1" width="7.33456" height="7.33456"/>
		
			<rect x="516.84766" y="587.80524" transform="matrix(-1 -0.00039 0.00039 -1 1040.79773 1183.14929)" class="st1" width="7.33456" height="7.33456"/>
	</g>
	<g>
		
			<rect x="474.68112" y="418.85706" transform="matrix(-1 -0.00039 0.00039 -1 956.53088 845.23645)" class="st3" width="7.33456" height="7.33456"/>
		
			<rect x="474.67282" y="439.97351" transform="matrix(-1 -0.00039 0.00039 -1 956.50598 887.46936)" class="st3" width="7.33456" height="7.33456"/>
		
			<rect x="474.66452" y="461.08997" transform="matrix(-1 -0.00039 0.00039 -1 956.48114 929.70221)" class="st3" width="7.33456" height="7.33456"/>
		
			<rect x="474.65625" y="482.20639" transform="matrix(-1 -0.00039 0.00039 -1 956.4563 971.93512)" class="st3" width="7.33456" height="7.33456"/>
		
			<rect x="474.64795" y="503.32285" transform="matrix(-1 -0.00039 0.00039 -1 956.4314 1014.16803)" class="st3" width="7.33456" height="7.33456"/>
		
			<rect x="474.63968" y="524.43927" transform="matrix(-1 -0.00039 0.00039 -1 956.40656 1056.40088)" class="st3" width="7.33456" height="7.33456"/>
		
			<rect x="474.63138" y="545.55573" transform="matrix(-1 -0.00039 0.00039 -1 956.38165 1098.63379)" class="st3" width="7.33456" height="7.33456"/>
		
			<rect x="474.62308" y="566.67218" transform="matrix(-1 -0.00039 0.00039 -1 956.35681 1140.8667)" class="st3" width="7.33456" height="7.33456"/>
		
			<rect x="474.61481" y="587.78864" transform="matrix(-1 -0.00039 0.00039 -1 956.33191 1183.09949)" class="st3" width="7.33456" height="7.33456"/>
	</g>
	<g>
		
			<rect x="516.98938" y="226.81454" transform="matrix(-1 -0.00039 0.00039 -1 1041.2229 461.16806)" class="st1" width="7.33456" height="7.33456"/>
		
			<rect x="516.98114" y="247.931" transform="matrix(-1 -0.00039 0.00039 -1 1041.198 503.40094)" class="st1" width="7.33456" height="7.33456"/>
		
			<rect x="516.97284" y="269.04745" transform="matrix(-1 -0.00039 0.00039 -1 1041.1731 545.63385)" class="st1" width="7.33456" height="7.33456"/>
		
			<rect x="516.96454" y="290.16388" transform="matrix(-1 -0.00039 0.00039 -1 1041.14819 587.8667)" class="st1" width="7.33456" height="7.33456"/>
		
			<rect x="516.95624" y="311.28033" transform="matrix(-1 -0.00039 0.00039 -1 1041.12341 630.09961)" class="st1" width="7.33456" height="7.33456"/>
		
			<rect x="516.94794" y="332.39679" transform="matrix(-1 -0.00039 0.00039 -1 1041.09851 672.33246)" class="st1" width="7.33456" height="7.33456"/>
		
			<rect x="516.93964" y="353.51321" transform="matrix(-1 -0.00039 0.00039 -1 1041.07361 714.56537)" class="st1" width="7.33456" height="7.33456"/>
		
			<rect x="516.9314" y="374.62967" transform="matrix(-1 -0.00039 0.00039 -1 1041.04871 756.79828)" class="st1" width="7.33456" height="7.33456"/>
		
			<rect x="516.9231" y="395.74612" transform="matrix(-1 -0.00039 0.00039 -1 1041.02393 799.03113)" class="st1" width="7.33456" height="7.33456"/>
	</g>
	<g>
		<g>
			
				<rect x="496.8031" y="418.86575" transform="matrix(-1 -0.00039 0.00039 -1 1000.77484 845.26251)" class="st4" width="7.33456" height="7.33456"/>
			
				<rect x="496.79483" y="439.98221" transform="matrix(-1 -0.00039 0.00039 -1 1000.75 887.49542)" class="st4" width="7.33456" height="7.33456"/>
			
				<rect x="496.78653" y="461.09863" transform="matrix(-1 -0.00039 0.00039 -1 1000.7251 929.72827)" class="st4" width="7.33456" height="7.33456"/>
			
				<rect x="496.77823" y="482.21509" transform="matrix(-1 -0.00039 0.00039 -1 1000.70026 971.96118)" class="st4" width="7.33456" height="7.33456"/>
			
				<rect x="496.76996" y="503.33154" transform="matrix(-1 -0.00039 0.00039 -1 1000.67535 1014.19403)" class="st4" width="7.33456" height="7.33456"/>
			
				<rect x="496.76166" y="524.448" transform="matrix(-1 -0.00039 0.00039 -1 1000.65051 1056.42688)" class="st4" width="7.33456" height="7.33456"/>
			
				<rect x="496.75336" y="545.56439" transform="matrix(-1 -0.00039 0.00039 -1 1000.62561 1098.65979)" class="st4" width="7.33456" height="7.33456"/>
			
				<rect x="496.74509" y="566.68085" transform="matrix(-1 -0.00039 0.00039 -1 1000.60077 1140.8927)" class="st4" width="7.33456" height="7.33456"/>
			
				<rect x="496.73679" y="587.7973" transform="matrix(-1 -0.00039 0.00039 -1 1000.57587 1183.12561)" class="st4" width="7.33456" height="7.33456"/>
		</g>
		<g>
			
				<rect x="496.87021" y="247.9231" transform="matrix(-1 -0.00039 0.00039 -1 1000.9762 503.37726)" class="st4" width="7.33456" height="7.33456"/>
			
				<rect x="496.86194" y="269.03955" transform="matrix(-1 -0.00039 0.00039 -1 1000.95129 545.61017)" class="st4" width="7.33456" height="7.33456"/>
			
				<rect x="496.85364" y="290.15601" transform="matrix(-1 -0.00039 0.00039 -1 1000.92645 587.84302)" class="st4" width="7.33456" height="7.33456"/>
			
				<rect x="496.84534" y="311.27243" transform="matrix(-1 -0.00039 0.00039 -1 1000.90155 630.07593)" class="st4" width="7.33456" height="7.33456"/>
			
				<rect x="496.83707" y="332.38889" transform="matrix(-1 -0.00039 0.00039 -1 1000.87671 672.30878)" class="st4" width="7.33456" height="7.33456"/>
			
				<rect x="496.82877" y="353.50534" transform="matrix(-1 -0.00039 0.00039 -1 1000.85181 714.54169)" class="st4" width="7.33456" height="7.33456"/>
			
				<rect x="496.81219" y="395.73822" transform="matrix(-1 -0.00039 0.00039 -1 1000.80206 799.00745)" class="st4" width="7.33456" height="7.33456"/>
		</g>
	</g>
	<g>
		<g>
			
				<rect x="429.74976" y="500.29092" transform="matrix(-1 -0.00039 0.00039 -1 876.10999 1008.08838)" class="st4" width="16.80838" height="7.33456"/>
			
				<rect x="429.74146" y="521.40735" transform="matrix(-1 -0.00039 0.00039 -1 876.08514 1050.32129)" class="st4" width="16.80838" height="7.33456"/>
			
				<rect x="429.73315" y="542.5238" transform="matrix(-1 -0.00039 0.00039 -1 876.06024 1092.5542)" class="st4" width="16.80838" height="7.33456"/>
			
				<rect x="429.71658" y="584.75671" transform="matrix(-1 -0.00039 0.00039 -1 876.0105 1177.0199)" class="st4" width="16.80838" height="7.33456"/>
			
				<rect x="429.70828" y="605.87317" transform="matrix(-1 -0.00039 0.00039 -1 875.98566 1219.25281)" class="st4" width="16.80838" height="7.33456"/>
			
				<rect x="429.69171" y="648.10602" transform="matrix(-1 -0.00039 0.00039 -1 875.93591 1303.71863)" class="st4" width="16.80838" height="7.33456"/>
		</g>
		<g>
			
				<rect x="429.74976" y="500.29092" transform="matrix(-1 -0.00039 0.00039 -1 876.10999 1008.08838)" class="st2" width="16.80838" height="7.33456"/>
			
				<rect x="429.74146" y="521.40735" transform="matrix(-1 -0.00039 0.00039 -1 876.08514 1050.32129)" class="st2" width="16.80838" height="7.33456"/>
			
				<rect x="429.73315" y="542.5238" transform="matrix(-1 -0.00039 0.00039 -1 876.06024 1092.5542)" class="st2" width="16.80838" height="7.33456"/>
			
				<rect x="429.71658" y="584.75671" transform="matrix(-1 -0.00039 0.00039 -1 876.0105 1177.0199)" class="st2" width="16.80838" height="7.33456"/>
			
				<rect x="429.70828" y="605.87317" transform="matrix(-1 -0.00039 0.00039 -1 875.98566 1219.25281)" class="st2" width="16.80838" height="7.33456"/>
			
				<rect x="429.69171" y="648.10602" transform="matrix(-1 -0.00039 0.00039 -1 875.93591 1303.71863)" class="st2" width="16.80838" height="7.33456"/>
		</g>
		<g>
			
				<rect x="429.83344" y="287.11539" transform="matrix(-1 -0.00039 0.00039 -1 876.36108 581.73737)" class="st4" width="16.80838" height="7.33456"/>
			
				<rect x="429.82513" y="308.23184" transform="matrix(-1 -0.00039 0.00039 -1 876.33618 623.97028)" class="st4" width="16.80838" height="7.33456"/>
			
				<rect x="429.81686" y="329.3483" transform="matrix(-1 -0.00039 0.00039 -1 876.31134 666.20313)" class="st4" width="16.80838" height="7.33456"/>
			
				<rect x="429.80856" y="350.46472" transform="matrix(-1 -0.00039 0.00039 -1 876.28644 708.43604)" class="st4" width="16.80838" height="7.33456"/>
			
				<rect x="429.80026" y="371.58118" transform="matrix(-1 -0.00039 0.00039 -1 876.2616 750.66895)" class="st4" width="16.80838" height="7.33456"/>
			
				<rect x="429.79199" y="392.69763" transform="matrix(-1 -0.00039 0.00039 -1 876.23669 792.90179)" class="st4" width="16.80838" height="7.33456"/>
			
				<rect x="429.78369" y="413.81406" transform="matrix(-1 -0.00039 0.00039 -1 876.21185 835.1347)" class="st4" width="16.80838" height="7.33456"/>
			
				<rect x="429.77542" y="434.93051" transform="matrix(-1 -0.00039 0.00039 -1 876.18695 877.36755)" class="st4" width="16.80838" height="7.33456"/>
			
				<rect x="429.76712" y="456.04697" transform="matrix(-1 -0.00039 0.00039 -1 876.16211 919.60046)" class="st4" width="16.80838" height="7.33456"/>
		</g>
	</g>
	<g>
		<g>
			
				<rect x="552.43451" y="479.22266" transform="matrix(-1 -0.00039 0.00039 -1 1121.48779 966)" class="st4" width="16.80838" height="7.33456"/>
			
				<rect x="552.42621" y="500.33908" transform="matrix(-1 -0.00039 0.00039 -1 1121.46289 1008.23291)" class="st4" width="16.80838" height="7.33456"/>
			
				<rect x="552.40967" y="542.57196" transform="matrix(-1 -0.00039 0.00039 -1 1121.41321 1092.69861)" class="st4" width="16.80838" height="7.33456"/>
			
				<rect x="552.40137" y="563.68842" transform="matrix(-1 -0.00039 0.00039 -1 1121.38831 1134.93152)" class="st4" width="16.80838" height="7.33456"/>
			
				<rect x="552.38477" y="605.92133" transform="matrix(-1 -0.00039 0.00039 -1 1121.33862 1219.39734)" class="st4" width="16.80838" height="7.33456"/>
			
				<rect x="552.37653" y="627.03778" transform="matrix(-1 -0.00039 0.00039 -1 1121.31372 1261.63025)" class="st4" width="16.80838" height="7.33456"/>
		</g>
		<g>
			
				<rect x="552.50995" y="287.16354" transform="matrix(-1 -0.00039 0.00039 -1 1121.71399 581.88184)" class="st4" width="16.80838" height="7.33456"/>
			
				<rect x="552.50165" y="308.28" transform="matrix(-1 -0.00039 0.00039 -1 1121.68909 624.11475)" class="st4" width="16.80838" height="7.33456"/>
			
				<rect x="552.49335" y="329.39645" transform="matrix(-1 -0.00039 0.00039 -1 1121.66431 666.34766)" class="st4" width="16.80838" height="7.33456"/>
			
				<rect x="552.48505" y="350.51288" transform="matrix(-1 -0.00039 0.00039 -1 1121.6394 708.58051)" class="st4" width="16.80838" height="7.33456"/>
			
				<rect x="552.47675" y="371.62933" transform="matrix(-1 -0.00039 0.00039 -1 1121.6145 750.81342)" class="st4" width="16.80838" height="7.33456"/>
			
				<rect x="552.46851" y="392.74579" transform="matrix(-1 -0.00039 0.00039 -1 1121.5896 793.04626)" class="st4" width="16.80838" height="7.33456"/>
			
				<rect x="552.46021" y="413.86221" transform="matrix(-1 -0.00039 0.00039 -1 1121.56482 835.27917)" class="st4" width="16.80838" height="7.33456"/>
			
				<rect x="552.4519" y="434.97867" transform="matrix(-1 -0.00039 0.00039 -1 1121.53992 877.51208)" class="st4" width="16.80838" height="7.33456"/>
			
				<rect x="552.4436" y="456.09512" transform="matrix(-1 -0.00039 0.00039 -1 1121.51501 919.74493)" class="st4" width="16.80838" height="7.33456"/>
		</g>
		<g>
			
				<rect x="552.36029" y="668.26514" transform="matrix(-1 -0.00039 0.00039 -1 1121.26514 1344.08484)" class="st4" width="16.80838" height="7.33456"/>
			
				<rect x="552.35205" y="689.38153" transform="matrix(-1 -0.00039 0.00039 -1 1121.24023 1386.31775)" class="st4" width="16.80838" height="7.33456"/>
			
				<rect x="552.34375" y="710.49799" transform="matrix(-1 -0.00039 0.00039 -1 1121.21545 1428.55066)" class="st4" width="16.80838" height="7.33456"/>
			
				<rect x="552.33545" y="731.61444" transform="matrix(-1 -0.00039 0.00039 -1 1121.19055 1470.78357)" class="st4" width="16.80838" height="7.33456"/>
		</g>
	</g>
	<g>
		
			<rect x="474.75653" y="226.79797" transform="matrix(-1 -0.00039 0.00039 -1 956.75708 461.11832)" class="st3" width="7.33456" height="7.33456"/>
		
			<rect x="474.74823" y="247.91441" transform="matrix(-1 -0.00039 0.00039 -1 956.73224 503.3512)" class="st3" width="7.33456" height="7.33456"/>
		
			<rect x="474.73166" y="290.14731" transform="matrix(-1 -0.00039 0.00039 -1 956.6825 587.81696)" class="st3" width="7.33456" height="7.33456"/>
		
			<rect x="474.72336" y="311.26376" transform="matrix(-1 -0.00039 0.00039 -1 956.65759 630.04987)" class="st3" width="7.33456" height="7.33456"/>
		
			<rect x="474.71506" y="332.38019" transform="matrix(-1 -0.00039 0.00039 -1 956.63275 672.28271)" class="st3" width="7.33456" height="7.33456"/>
		
			<rect x="474.70679" y="353.49664" transform="matrix(-1 -0.00039 0.00039 -1 956.60785 714.51563)" class="st3" width="7.33456" height="7.33456"/>
		
			<rect x="474.69019" y="395.72952" transform="matrix(-1 -0.00039 0.00039 -1 956.55811 798.98138)" class="st3" width="7.33456" height="7.33456"/>
	</g>
	<g>
		
			<rect x="645.60248" y="473.2236" transform="matrix(-1 -0.00039 0.00039 -1 1298.35217 954.03662)" class="st1" width="7.33456" height="7.33456"/>
		
			<rect x="645.59418" y="494.34006" transform="matrix(-1 -0.00039 0.00039 -1 1298.32727 996.26953)" class="st1" width="7.33456" height="7.33456"/>
		
			<rect x="645.58588" y="515.45648" transform="matrix(-1 -0.00039 0.00039 -1 1298.30249 1038.50244)" class="st1" width="7.33456" height="7.33456"/>
		
			<rect x="645.57758" y="536.57294" transform="matrix(-1 -0.00039 0.00039 -1 1298.27759 1080.73535)" class="st1" width="7.33456" height="7.33456"/>
		
			<rect x="645.56927" y="557.68939" transform="matrix(-1 -0.00039 0.00039 -1 1298.25269 1122.96814)" class="st1" width="7.33456" height="7.33456"/>
		
			<rect x="645.56097" y="578.80585" transform="matrix(-1 -0.00039 0.00039 -1 1298.22778 1165.20105)" class="st1" width="7.33456" height="7.33456"/>
		
			<rect x="645.55273" y="599.9223" transform="matrix(-1 -0.00039 0.00039 -1 1298.203 1207.43396)" class="st1" width="7.33456" height="7.33456"/>
		
			<rect x="645.54443" y="621.0387" transform="matrix(-1 -0.00039 0.00039 -1 1298.1781 1249.66687)" class="st1" width="7.33456" height="7.33456"/>
		
			<rect x="645.53613" y="642.15515" transform="matrix(-1 -0.00039 0.00039 -1 1298.1532 1291.89978)" class="st1" width="7.33456" height="7.33456"/>
	</g>
	<g>
		
			<rect x="603.36127" y="494.32349" transform="matrix(-1 -0.00039 0.00039 -1 1213.86157 996.21979)" class="st3" width="7.33456" height="7.33456"/>
		
			<rect x="603.35297" y="515.43994" transform="matrix(-1 -0.00039 0.00039 -1 1213.83667 1038.45264)" class="st3" width="7.33456" height="7.33456"/>
		
			<rect x="603.33643" y="557.67279" transform="matrix(-1 -0.00039 0.00039 -1 1213.78699 1122.91846)" class="st3" width="7.33456" height="7.33456"/>
		
			<rect x="603.32813" y="578.78925" transform="matrix(-1 -0.00039 0.00039 -1 1213.76208 1165.15137)" class="st3" width="7.33456" height="7.33456"/>
		
			<rect x="603.31982" y="599.9057" transform="matrix(-1 -0.00039 0.00039 -1 1213.73718 1207.38416)" class="st3" width="7.33456" height="7.33456"/>
		
			<rect x="603.31152" y="621.02216" transform="matrix(-1 -0.00039 0.00039 -1 1213.71228 1249.61707)" class="st3" width="7.33456" height="7.33456"/>
		
			<rect x="603.30322" y="642.13861" transform="matrix(-1 -0.00039 0.00039 -1 1213.6875 1291.84998)" class="st3" width="7.33456" height="7.33456"/>
	</g>
	<g>
		
			<rect x="645.66956" y="302.28094" transform="matrix(-1 -0.00039 0.00039 -1 1298.55347 612.15137)" class="st1" width="7.33456" height="7.33456"/>
		
			<rect x="645.66125" y="323.3974" transform="matrix(-1 -0.00039 0.00039 -1 1298.52869 654.38428)" class="st1" width="7.33456" height="7.33456"/>
		
			<rect x="645.65295" y="344.51385" transform="matrix(-1 -0.00039 0.00039 -1 1298.50378 696.61713)" class="st1" width="7.33456" height="7.33456"/>
		
			<rect x="645.64471" y="365.63028" transform="matrix(-1 -0.00039 0.00039 -1 1298.47888 738.85004)" class="st1" width="7.33456" height="7.33456"/>
		
			<rect x="645.63641" y="386.74673" transform="matrix(-1 -0.00039 0.00039 -1 1298.45398 781.08295)" class="st1" width="7.33456" height="7.33456"/>
		
			<rect x="645.62811" y="407.86319" transform="matrix(-1 -0.00039 0.00039 -1 1298.4292 823.3158)" class="st1" width="7.33456" height="7.33456"/>
		
			<rect x="645.61981" y="428.97961" transform="matrix(-1 -0.00039 0.00039 -1 1298.4043 865.54871)" class="st1" width="7.33456" height="7.33456"/>
	</g>
	<g>
		<g>
			
				<rect x="625.49158" y="473.2157" transform="matrix(-1 -0.00039 0.00039 -1 1258.13037 954.01294)" class="st4" width="7.33456" height="7.33456"/>
			
				<rect x="625.48328" y="494.33215" transform="matrix(-1 -0.00039 0.00039 -1 1258.10547 996.24585)" class="st4" width="7.33456" height="7.33456"/>
			
				<rect x="625.47498" y="515.44861" transform="matrix(-1 -0.00039 0.00039 -1 1258.08069 1038.47876)" class="st4" width="7.33456" height="7.33456"/>
			
				<rect x="625.46667" y="536.56506" transform="matrix(-1 -0.00039 0.00039 -1 1258.05579 1080.71155)" class="st4" width="7.33456" height="7.33456"/>
			
				<rect x="625.45837" y="557.68152" transform="matrix(-1 -0.00039 0.00039 -1 1258.03088 1122.94446)" class="st4" width="7.33456" height="7.33456"/>
			
				<rect x="625.45007" y="578.79791" transform="matrix(-1 -0.00039 0.00039 -1 1258.00598 1165.17737)" class="st4" width="7.33456" height="7.33456"/>
			
				<rect x="625.44183" y="599.91437" transform="matrix(-1 -0.00039 0.00039 -1 1257.9812 1207.41028)" class="st4" width="7.33456" height="7.33456"/>
			
				<rect x="625.43353" y="621.03082" transform="matrix(-1 -0.00039 0.00039 -1 1257.9563 1249.64319)" class="st4" width="7.33456" height="7.33456"/>
			
				<rect x="625.42523" y="642.14728" transform="matrix(-1 -0.00039 0.00039 -1 1257.9314 1291.87598)" class="st4" width="7.33456" height="7.33456"/>
		</g>
		<g>
			
				<rect x="625.56696" y="281.15662" transform="matrix(-1 -0.00039 0.00039 -1 1258.35657 569.89484)" class="st4" width="7.33456" height="7.33456"/>
			
				<rect x="625.55865" y="302.27307" transform="matrix(-1 -0.00039 0.00039 -1 1258.33167 612.12769)" class="st4" width="7.33456" height="7.33456"/>
			
				<rect x="625.55035" y="323.3895" transform="matrix(-1 -0.00039 0.00039 -1 1258.30688 654.3606)" class="st4" width="7.33456" height="7.33456"/>
			
				<rect x="625.54205" y="344.50595" transform="matrix(-1 -0.00039 0.00039 -1 1258.28198 696.59344)" class="st4" width="7.33456" height="7.33456"/>
			
				<rect x="625.53381" y="365.62241" transform="matrix(-1 -0.00039 0.00039 -1 1258.25708 738.82635)" class="st4" width="7.33456" height="7.33456"/>
			
				<rect x="625.52551" y="386.73883" transform="matrix(-1 -0.00039 0.00039 -1 1258.2323 781.0592)" class="st4" width="7.33456" height="7.33456"/>
			
				<rect x="625.51721" y="407.85529" transform="matrix(-1 -0.00039 0.00039 -1 1258.2074 823.29211)" class="st4" width="7.33456" height="7.33456"/>
			
				<rect x="625.50891" y="428.97174" transform="matrix(-1 -0.00039 0.00039 -1 1258.1825 865.52502)" class="st4" width="7.33456" height="7.33456"/>
			
				<rect x="625.50061" y="450.08817" transform="matrix(-1 -0.00039 0.00039 -1 1258.15759 907.75787)" class="st4" width="7.33456" height="7.33456"/>
		</g>
	</g>
	<g>
		
			<rect x="603.44495" y="281.14792" transform="matrix(-1 -0.00039 0.00039 -1 1214.11267 569.86877)" class="st3" width="7.33456" height="7.33456"/>
		
			<rect x="603.42841" y="323.38083" transform="matrix(-1 -0.00039 0.00039 -1 1214.06287 654.33453)" class="st3" width="7.33456" height="7.33456"/>
		
			<rect x="603.4201" y="344.49725" transform="matrix(-1 -0.00039 0.00039 -1 1214.03796 696.56738)" class="st3" width="7.33456" height="7.33456"/>
		
			<rect x="603.4118" y="365.61371" transform="matrix(-1 -0.00039 0.00039 -1 1214.01318 738.80029)" class="st3" width="7.33456" height="7.33456"/>
		
			<rect x="603.4035" y="386.73016" transform="matrix(-1 -0.00039 0.00039 -1 1213.98828 781.0332)" class="st3" width="7.33456" height="7.33456"/>
		
			<rect x="603.3869" y="428.96304" transform="matrix(-1 -0.00039 0.00039 -1 1213.93848 865.49896)" class="st3" width="7.33456" height="7.33456"/>
		
			<rect x="603.37866" y="450.0795" transform="matrix(-1 -0.00039 0.00039 -1 1213.9137 907.73181)" class="st3" width="7.33456" height="7.33456"/>
	</g>
	<g>
		
			<rect x="603.44495" y="281.14792" transform="matrix(-1 -0.00039 0.00039 -1 1214.11267 569.86877)" class="st2" width="7.33456" height="7.33456"/>
		
			<rect x="603.42841" y="323.38083" transform="matrix(-1 -0.00039 0.00039 -1 1214.06287 654.33453)" class="st2" width="7.33456" height="7.33456"/>
		
			<rect x="603.4201" y="344.49725" transform="matrix(-1 -0.00039 0.00039 -1 1214.03796 696.56738)" class="st2" width="7.33456" height="7.33456"/>
		
			<rect x="603.4118" y="365.61371" transform="matrix(-1 -0.00039 0.00039 -1 1214.01318 738.80029)" class="st2" width="7.33456" height="7.33456"/>
		
			<rect x="603.4035" y="386.73016" transform="matrix(-1 -0.00039 0.00039 -1 1213.98828 781.0332)" class="st2" width="7.33456" height="7.33456"/>
		
			<rect x="603.3869" y="428.96304" transform="matrix(-1 -0.00039 0.00039 -1 1213.93848 865.49896)" class="st2" width="7.33456" height="7.33456"/>
		
			<rect x="603.37866" y="450.0795" transform="matrix(-1 -0.00039 0.00039 -1 1213.9137 907.73181)" class="st2" width="7.33456" height="7.33456"/>
	</g>
</g>
<g>
	<rect x="248.0271" y="337.44577" class="st8" width="132.90939" height="432.29218"/>
	<polyline class="st9" points="380.85165,769.76404 382.02847,333.45007 249.11909,333.39789 	"/>
	<rect x="248.0271" y="337.44577" class="st8" width="132.90939" height="432.29218"/>
	<polyline class="st10" points="380.88675,767.75293 382.02551,341.03738 252.68011,340.9866 	"/>
	<g>
		
			<rect x="281.55569" y="573.63519" transform="matrix(-1 -0.00039 0.00039 -1 570.21924 1154.71692)" class="st3" width="7.33456" height="7.33456"/>
		
			<rect x="281.54739" y="594.75165" transform="matrix(-1 -0.00039 0.00039 -1 570.1944 1196.94983)" class="st3" width="7.33456" height="7.33456"/>
		
			<rect x="281.53909" y="615.8681" transform="matrix(-1 -0.00039 0.00039 -1 570.16949 1239.18262)" class="st3" width="7.33456" height="7.33456"/>
		
			<rect x="281.53082" y="636.98456" transform="matrix(-1 -0.00039 0.00039 -1 570.14465 1281.41553)" class="st3" width="7.33456" height="7.33456"/>
		
			<rect x="281.52252" y="658.10095" transform="matrix(-1 -0.00039 0.00039 -1 570.11975 1323.64844)" class="st3" width="7.33456" height="7.33456"/>
		
			<rect x="281.51422" y="679.21741" transform="matrix(-1 -0.00039 0.00039 -1 570.09491 1365.88135)" class="st3" width="7.33456" height="7.33456"/>
		
			<rect x="281.50595" y="700.33386" transform="matrix(-1 -0.00039 0.00039 -1 570.07007 1408.11426)" class="st3" width="7.33456" height="7.33456"/>
		
			<rect x="281.49765" y="721.45032" transform="matrix(-1 -0.00039 0.00039 -1 570.04517 1450.34705)" class="st3" width="7.33456" height="7.33456"/>
		
			<rect x="281.48935" y="742.56677" transform="matrix(-1 -0.00039 0.00039 -1 570.02032 1492.57996)" class="st3" width="7.33456" height="7.33456"/>
	</g>
	<g>
		<g>
			
				<rect x="323.78857" y="573.65179" transform="matrix(-1 -0.00039 0.00039 -1 654.68506 1154.7666)" class="st1" width="7.33456" height="7.33456"/>
			
				<rect x="323.78027" y="594.76825" transform="matrix(-1 -0.00039 0.00039 -1 654.66016 1196.99951)" class="st1" width="7.33456" height="7.33456"/>
			
				<rect x="323.772" y="615.88464" transform="matrix(-1 -0.00039 0.00039 -1 654.63531 1239.23242)" class="st1" width="7.33456" height="7.33456"/>
			
				<rect x="323.7637" y="637.0011" transform="matrix(-1 -0.00039 0.00039 -1 654.61041 1281.46533)" class="st1" width="7.33456" height="7.33456"/>
			
				<rect x="323.7554" y="658.11755" transform="matrix(-1 -0.00039 0.00039 -1 654.58557 1323.69812)" class="st1" width="7.33456" height="7.33456"/>
			
				<rect x="323.74713" y="679.23401" transform="matrix(-1 -0.00039 0.00039 -1 654.56067 1365.93103)" class="st1" width="7.33456" height="7.33456"/>
			
				<rect x="323.73883" y="700.35046" transform="matrix(-1 -0.00039 0.00039 -1 654.53583 1408.16394)" class="st1" width="7.33456" height="7.33456"/>
			
				<rect x="323.73053" y="721.46692" transform="matrix(-1 -0.00039 0.00039 -1 654.51093 1450.39685)" class="st1" width="7.33456" height="7.33456"/>
			
				<rect x="323.72226" y="742.58331" transform="matrix(-1 -0.00039 0.00039 -1 654.48608 1492.62976)" class="st1" width="7.33456" height="7.33456"/>
		</g>
		<g>
			
				<rect x="323.85568" y="402.70914" transform="matrix(-1 -0.00039 0.00039 -1 654.88635 812.88141)" class="st1" width="7.33456" height="7.33456"/>
			
				<rect x="323.84738" y="423.82559" transform="matrix(-1 -0.00039 0.00039 -1 654.86151 855.11426)" class="st1" width="7.33456" height="7.33456"/>
			
				<rect x="323.83081" y="466.05847" transform="matrix(-1 -0.00039 0.00039 -1 654.81177 939.58002)" class="st1" width="7.33456" height="7.33456"/>
			
				<rect x="323.82251" y="487.17493" transform="matrix(-1 -0.00039 0.00039 -1 654.78687 981.81293)" class="st1" width="7.33456" height="7.33456"/>
			
				<rect x="323.81424" y="508.29135" transform="matrix(-1 -0.00039 0.00039 -1 654.76202 1024.04578)" class="st1" width="7.33456" height="7.33456"/>
			
				<rect x="323.80594" y="529.40778" transform="matrix(-1 -0.00039 0.00039 -1 654.73712 1066.27869)" class="st1" width="7.33456" height="7.33456"/>
		</g>
	</g>
	<g>
		<g>
			
				<rect x="343.89948" y="573.65967" transform="matrix(-1 -0.00039 0.00039 -1 694.9068 1154.79028)" class="st11" width="7.33456" height="7.33456"/>
			
				<rect x="343.89117" y="594.77612" transform="matrix(-1 -0.00039 0.00039 -1 694.88196 1197.02319)" class="st11" width="7.33456" height="7.33456"/>
			
				<rect x="343.8829" y="615.89258" transform="matrix(-1 -0.00039 0.00039 -1 694.85712 1239.2561)" class="st11" width="7.33456" height="7.33456"/>
			
				<rect x="343.8746" y="637.00903" transform="matrix(-1 -0.00039 0.00039 -1 694.83221 1281.48901)" class="st11" width="7.33456" height="7.33456"/>
			
				<rect x="343.8663" y="658.12543" transform="matrix(-1 -0.00039 0.00039 -1 694.80737 1323.72192)" class="st11" width="7.33456" height="7.33456"/>
			
				<rect x="343.85803" y="679.24188" transform="matrix(-1 -0.00039 0.00039 -1 694.78247 1365.95471)" class="st11" width="7.33456" height="7.33456"/>
			
				<rect x="343.84973" y="700.35834" transform="matrix(-1 -0.00039 0.00039 -1 694.75763 1408.18762)" class="st11" width="7.33456" height="7.33456"/>
			
				<rect x="343.84143" y="721.47479" transform="matrix(-1 -0.00039 0.00039 -1 694.73273 1450.42053)" class="st11" width="7.33456" height="7.33456"/>
			
				<rect x="343.83316" y="742.59125" transform="matrix(-1 -0.00039 0.00039 -1 694.70789 1492.65344)" class="st11" width="7.33456" height="7.33456"/>
		</g>
		<g>
			
				<rect x="343.97488" y="381.60059" transform="matrix(-1 -0.00039 0.00039 -1 695.13306 770.67218)" class="st11" width="7.33456" height="7.33456"/>
			
				<rect x="343.95828" y="423.83347" transform="matrix(-1 -0.00039 0.00039 -1 695.08331 855.13794)" class="st11" width="7.33456" height="7.33456"/>
			
				<rect x="343.95001" y="444.94992" transform="matrix(-1 -0.00039 0.00039 -1 695.05841 897.37085)" class="st11" width="7.33456" height="7.33456"/>
			
				<rect x="343.93341" y="487.1828" transform="matrix(-1 -0.00039 0.00039 -1 695.00867 981.83661)" class="st11" width="7.33456" height="7.33456"/>
			
				<rect x="343.91684" y="529.41571" transform="matrix(-1 -0.00039 0.00039 -1 694.95892 1066.30237)" class="st11" width="7.33456" height="7.33456"/>
		</g>
	</g>
	<g>
		<g>
			
				<rect x="303.67767" y="573.64386" transform="matrix(-1 -0.00039 0.00039 -1 614.46326 1154.74292)" class="st4" width="7.33456" height="7.33456"/>
			
				<rect x="303.66937" y="594.76031" transform="matrix(-1 -0.00039 0.00039 -1 614.43835 1196.97583)" class="st4" width="7.33456" height="7.33456"/>
			
				<rect x="303.6611" y="615.87677" transform="matrix(-1 -0.00039 0.00039 -1 614.41351 1239.20874)" class="st4" width="7.33456" height="7.33456"/>
			
				<rect x="303.6528" y="636.99323" transform="matrix(-1 -0.00039 0.00039 -1 614.38861 1281.44165)" class="st4" width="7.33456" height="7.33456"/>
			
				<rect x="303.6445" y="658.10968" transform="matrix(-1 -0.00039 0.00039 -1 614.36377 1323.67444)" class="st4" width="7.33456" height="7.33456"/>
			
				<rect x="303.63623" y="679.22614" transform="matrix(-1 -0.00039 0.00039 -1 614.33887 1365.90735)" class="st4" width="7.33456" height="7.33456"/>
			
				<rect x="303.62793" y="700.34253" transform="matrix(-1 -0.00039 0.00039 -1 614.31403 1408.14026)" class="st4" width="7.33456" height="7.33456"/>
			
				<rect x="303.61963" y="721.45898" transform="matrix(-1 -0.00039 0.00039 -1 614.28912 1450.37317)" class="st4" width="7.33456" height="7.33456"/>
			
				<rect x="303.61136" y="742.57544" transform="matrix(-1 -0.00039 0.00039 -1 614.26428 1492.60608)" class="st4" width="7.33456" height="7.33456"/>
		</g>
		<g>
			
				<rect x="303.75308" y="381.58478" transform="matrix(-1 -0.00039 0.00039 -1 614.68945 770.62482)" class="st4" width="7.33456" height="7.33456"/>
			
				<rect x="303.73648" y="423.81769" transform="matrix(-1 -0.00039 0.00039 -1 614.63971 855.09058)" class="st4" width="7.33456" height="7.33456"/>
			
				<rect x="303.71991" y="466.05057" transform="matrix(-1 -0.00039 0.00039 -1 614.58997 939.55634)" class="st4" width="7.33456" height="7.33456"/>
			
				<rect x="303.70334" y="508.28345" transform="matrix(-1 -0.00039 0.00039 -1 614.54022 1024.02209)" class="st4" width="7.33456" height="7.33456"/>
			
				<rect x="303.69504" y="529.3999" transform="matrix(-1 -0.00039 0.00039 -1 614.51532 1066.255)" class="st4" width="7.33456" height="7.33456"/>
			
				<rect x="303.68674" y="550.51636" transform="matrix(-1 -0.00039 0.00039 -1 614.49048 1108.48792)" class="st4" width="7.33456" height="7.33456"/>
		</g>
	</g>
	<g>
		
			<rect x="281.63107" y="381.57611" transform="matrix(-1 -0.00039 0.00039 -1 570.44543 770.59875)" class="st3" width="7.33456" height="7.33456"/>
		
			<rect x="281.6228" y="402.69257" transform="matrix(-1 -0.00039 0.00039 -1 570.42059 812.83167)" class="st3" width="7.33456" height="7.33456"/>
		
			<rect x="281.6145" y="423.80899" transform="matrix(-1 -0.00039 0.00039 -1 570.39575 855.06451)" class="st3" width="7.33456" height="7.33456"/>
		
			<rect x="281.6062" y="444.92545" transform="matrix(-1 -0.00039 0.00039 -1 570.37085 897.29742)" class="st3" width="7.33456" height="7.33456"/>
		
			<rect x="281.59793" y="466.0419" transform="matrix(-1 -0.00039 0.00039 -1 570.34601 939.53027)" class="st3" width="7.33456" height="7.33456"/>
		
			<rect x="281.58963" y="487.15833" transform="matrix(-1 -0.00039 0.00039 -1 570.32111 981.76318)" class="st3" width="7.33456" height="7.33456"/>
		
			<rect x="281.58133" y="508.27478" transform="matrix(-1 -0.00039 0.00039 -1 570.29626 1023.99609)" class="st3" width="7.33456" height="7.33456"/>
		
			<rect x="281.57306" y="529.39124" transform="matrix(-1 -0.00039 0.00039 -1 570.27136 1066.229)" class="st3" width="7.33456" height="7.33456"/>
		
			<rect x="281.56476" y="550.50769" transform="matrix(-1 -0.00039 0.00039 -1 570.24652 1108.46179)" class="st3" width="7.33456" height="7.33456"/>
	</g>
	<g>
		
			<rect x="281.63107" y="381.57611" transform="matrix(-1 -0.00039 0.00039 -1 570.44543 770.59875)" class="st2" width="7.33456" height="7.33456"/>
		
			<rect x="281.6228" y="402.69257" transform="matrix(-1 -0.00039 0.00039 -1 570.42059 812.83167)" class="st2" width="7.33456" height="7.33456"/>
		
			<rect x="281.6145" y="423.80899" transform="matrix(-1 -0.00039 0.00039 -1 570.39575 855.06451)" class="st2" width="7.33456" height="7.33456"/>
		
			<rect x="281.6062" y="444.92545" transform="matrix(-1 -0.00039 0.00039 -1 570.37085 897.29742)" class="st2" width="7.33456" height="7.33456"/>
		
			<rect x="281.59793" y="466.0419" transform="matrix(-1 -0.00039 0.00039 -1 570.34601 939.53027)" class="st2" width="7.33456" height="7.33456"/>
		
			<rect x="281.58963" y="487.15833" transform="matrix(-1 -0.00039 0.00039 -1 570.32111 981.76318)" class="st2" width="7.33456" height="7.33456"/>
		
			<rect x="281.58133" y="508.27478" transform="matrix(-1 -0.00039 0.00039 -1 570.29626 1023.99609)" class="st2" width="7.33456" height="7.33456"/>
		
			<rect x="281.57306" y="529.39124" transform="matrix(-1 -0.00039 0.00039 -1 570.27136 1066.229)" class="st2" width="7.33456" height="7.33456"/>
		
			<rect x="281.56476" y="550.50769" transform="matrix(-1 -0.00039 0.00039 -1 570.24652 1108.46179)" class="st2" width="7.33456" height="7.33456"/>
	</g>
	<g>
		
			<rect x="323.78857" y="573.65179" transform="matrix(-1 -0.00039 0.00039 -1 654.68506 1154.7666)" class="st1" width="7.33456" height="7.33456"/>
		
			<rect x="323.78027" y="594.76825" transform="matrix(-1 -0.00039 0.00039 -1 654.66016 1196.99951)" class="st1" width="7.33456" height="7.33456"/>
		
			<rect x="323.772" y="615.88464" transform="matrix(-1 -0.00039 0.00039 -1 654.63531 1239.23242)" class="st1" width="7.33456" height="7.33456"/>
		
			<rect x="323.7637" y="637.0011" transform="matrix(-1 -0.00039 0.00039 -1 654.61041 1281.46533)" class="st1" width="7.33456" height="7.33456"/>
		
			<rect x="323.7554" y="658.11755" transform="matrix(-1 -0.00039 0.00039 -1 654.58557 1323.69812)" class="st1" width="7.33456" height="7.33456"/>
		
			<rect x="323.74713" y="679.23401" transform="matrix(-1 -0.00039 0.00039 -1 654.56067 1365.93103)" class="st1" width="7.33456" height="7.33456"/>
		
			<rect x="323.73883" y="700.35046" transform="matrix(-1 -0.00039 0.00039 -1 654.53583 1408.16394)" class="st1" width="7.33456" height="7.33456"/>
		
			<rect x="323.73053" y="721.46692" transform="matrix(-1 -0.00039 0.00039 -1 654.51093 1450.39685)" class="st1" width="7.33456" height="7.33456"/>
		
			<rect x="323.72226" y="742.58331" transform="matrix(-1 -0.00039 0.00039 -1 654.48608 1492.62976)" class="st1" width="7.33456" height="7.33456"/>
	</g>
	<g>
		
			<rect x="281.55569" y="573.63519" transform="matrix(-1 -0.00039 0.00039 -1 570.21924 1154.71692)" class="st3" width="7.33456" height="7.33456"/>
		
			<rect x="281.54739" y="594.75165" transform="matrix(-1 -0.00039 0.00039 -1 570.1944 1196.94983)" class="st3" width="7.33456" height="7.33456"/>
		
			<rect x="281.53909" y="615.8681" transform="matrix(-1 -0.00039 0.00039 -1 570.16949 1239.18262)" class="st3" width="7.33456" height="7.33456"/>
		
			<rect x="281.52252" y="658.10095" transform="matrix(-1 -0.00039 0.00039 -1 570.11975 1323.64844)" class="st3" width="7.33456" height="7.33456"/>
		
			<rect x="281.51422" y="679.21741" transform="matrix(-1 -0.00039 0.00039 -1 570.09491 1365.88135)" class="st3" width="7.33456" height="7.33456"/>
		
			<rect x="281.49765" y="721.45032" transform="matrix(-1 -0.00039 0.00039 -1 570.04517 1450.34705)" class="st3" width="7.33456" height="7.33456"/>
		
			<rect x="281.48935" y="742.56677" transform="matrix(-1 -0.00039 0.00039 -1 570.02032 1492.57996)" class="st3" width="7.33456" height="7.33456"/>
	</g>
</g>
</svg>
